<?xml version="1.0" encoding="UTF-8" standalone="no"?>
<svg
   xmlns:dc="http://purl.org/dc/elements/1.1/"
   xmlns:cc="http://creativecommons.org/ns#"
   xmlns:rdf="http://www.w3.org/1999/02/22-rdf-syntax-ns#"
   xmlns:svg="http://www.w3.org/2000/svg"
   xmlns="http://www.w3.org/2000/svg"
   xmlns:sodipodi="http://sodipodi.sourceforge.net/DTD/sodipodi-0.dtd"
   xmlns:inkscape="http://www.inkscape.org/namespaces/inkscape"
   width="320"
   height="200"
   viewBox="0 0 84.666665 52.916668"
   version="1.1"
   id="svg8"
   inkscape:version="1.0.1 (3bc2e813f5, 2020-09-07)"
   sodipodi:docname="undefined_big.svg">
  <defs
     id="defs2" />
  <sodipodi:namedview
     id="base"
     pagecolor="#ffffff"
     bordercolor="#666666"
     borderopacity="1.0"
     inkscape:pageopacity="0.0"
     inkscape:pageshadow="2"
     inkscape:zoom="0.98994949"
     inkscape:cx="349.58617"
     inkscape:cy="347.9008"
     inkscape:document-units="px"
     inkscape:current-layer="layer1"
     inkscape:document-rotation="0"
     showgrid="false"
     units="px"
     inkscape:window-width="1500"
     inkscape:window-height="1040"
     inkscape:window-x="26"
     inkscape:window-y="0"
     inkscape:window-maximized="0" />
  <metadata
     id="metadata5">
    <rdf:RDF>
      <cc:Work
         rdf:about="">
        <dc:format>image/svg+xml</dc:format>
        <dc:type
           rdf:resource="http://purl.org/dc/dcmitype/StillImage" />
        <dc:title></dc:title>
      </cc:Work>
    </rdf:RDF>
  </metadata>
  <g
     inkscape:label="Слой 1"
     inkscape:groupmode="layer"
     id="layer1">
    <path
       style="fill:none;stroke:#000000;stroke-width:0.119273px;stroke-linecap:butt;stroke-linejoin:miter;stroke-opacity:1"
       d="M 30.885602,18.205483 C 39.58225,8.7634889 53.036223,-1.9004636 59.511019,4.5743326 65.985815,11.049129 58.829458,30.13274 49.287656,38.311428 39.74585,46.490116 24.410806,55.350364 21.343797,44.104663 18.276788,32.85897 30.885602,18.205483 30.885602,18.205483 Z"
       id="path10"
       sodipodi:nodetypes="csssc" />
    <path
       style="fill:none;stroke:#000000;stroke-width:0.0624079px;stroke-linecap:butt;stroke-linejoin:miter;stroke-opacity:1"
       d="M 40.926126,13.40154 C 43.263543,8.3415542 59.430686,16.829273 56.7037,20.257007 53.976714,23.684739 38.783489,16.66605 40.926126,13.40154 Z"
       id="path16" />
    <path
       style="fill:none;stroke:#000000;stroke-width:0.0624079px;stroke-linecap:butt;stroke-linejoin:miter;stroke-opacity:1"
       d="m 33.285842,23.018216 c 2.337416,-5.059989 18.504562,3.427734 15.777576,6.855468 -2.726986,3.427734 -17.920213,-3.59096 -15.777576,-6.855468 z"
       id="path16-6" />
    <path
       style="fill:none;stroke:#000000;stroke-width:0.0624079px;stroke-linecap:butt;stroke-linejoin:miter;stroke-opacity:1"
       d="m 26.353329,32.14187 c 2.337416,-5.059985 18.504562,3.427742 15.777577,6.855468 -2.726988,3.427735 -17.920214,-3.590952 -15.777577,-6.855468 z"
       id="path16-4" />
    <path
       style="fill:#ff9955;stroke-width:0.0602417"
       d="m 26.917219,49.264115 c -2.991288,-0.377881 -4.911044,-2.391821 -5.654454,-5.931878 -0.215072,-1.024156 -0.284492,-1.765586 -0.284246,-3.035876 2.39e-4,-1.235576 0.05858,-1.901394 0.27881,-3.181987 0.860062,-5.001058 3.811417,-11.094247 8.194676,-16.918244 1.3844,-1.839441 1.617893,-2.10057 4.088896,-4.57287 2.284916,-2.286112 3.65853,-3.554099 5.603725,-5.172815 5.348729,-4.4510039 10.137337,-7.0836589 13.922318,-7.6541431 0.791843,-0.119349 2.084549,-0.1162673 2.800876,0.00668 1.405029,0.241149 2.611257,0.8736955 3.612975,1.8946483 1.315218,1.340471 2.105272,3.2714809 2.34785,5.7385118 0.09363,0.952146 0.04565,3.20349 -0.08948,4.197243 -0.949754,6.985638 -4.530004,14.750614 -9.464045,20.525961 -1.622186,1.898789 -3.801993,3.846202 -6.85555,6.124668 -7.55503,5.637313 -14.236396,8.519004 -18.502347,7.980101 z m 13.91634,-9.449809 c 0.785379,-0.200872 1.249786,-0.525958 1.509408,-1.056607 0.532457,-1.0883 -0.406132,-2.632455 -2.603112,-4.2826 -2.295146,-1.72388 -5.414929,-3.156847 -8.145917,-3.741546 -0.683443,-0.146325 -0.883804,-0.162914 -1.965841,-0.162788 -1.152673,1.19e-4 -1.226118,0.0074 -1.696457,0.164933 -0.820451,0.275029 -1.427939,0.828888 -1.747176,1.592927 -0.1391,0.332916 -0.08229,0.922306 0.12927,1.341144 0.781848,1.547888 3.540716,3.459554 7.019231,4.863737 1.913383,0.772381 3.776881,1.254213 5.51212,1.425225 0.468948,0.04624 1.550092,-0.03229 1.988474,-0.144425 z m 6.686714,-9.064438 c 0.608005,-0.116332 1.042156,-0.321279 1.410529,-0.665841 0.393409,-0.367987 0.512546,-0.677041 0.47317,-1.227426 -0.09711,-1.357132 -1.862003,-3.158398 -4.715437,-4.812596 -3.464818,-2.00864 -7.359547,-3.035709 -9.533876,-2.514152 -1.494297,0.358437 -2.439023,1.667985 -2.012708,2.789961 0.649085,1.708248 4.107834,4.037683 8.112803,5.463896 1.386339,0.493685 2.49629,0.766792 4.126557,1.015331 0.404015,0.06161 1.717897,0.0314 2.138962,-0.04914 z m 7.916217,-9.677256 c 0.506927,-0.129354 0.876889,-0.326901 1.180138,-0.630148 0.342966,-0.342968 0.419677,-0.53995 0.420619,-1.080105 7.2e-4,-0.421372 -0.0242,-0.534926 -0.198519,-0.903627 -0.415201,-0.878215 -1.246561,-1.767335 -2.588774,-2.768622 -2.578464,-1.923527 -6.061443,-3.42337 -8.898763,-3.831997 -0.634652,-0.0914 -1.926916,-0.07671 -2.427143,0.02759 -0.947312,0.19752 -1.671218,0.719384 -2.049059,1.477166 -0.361044,0.724095 -0.220474,1.396614 0.47447,2.269962 1.643094,2.064902 6.464051,4.542443 10.373906,5.331255 1.556735,0.314071 2.768789,0.349497 3.713125,0.108528 z"
       id="path39" />
  </g>
</svg>
