<?xml version="1.0" encoding="UTF-8" standalone="no"?>
<svg
   xmlns:dc="http://purl.org/dc/elements/1.1/"
   xmlns:cc="http://creativecommons.org/ns#"
   xmlns:rdf="http://www.w3.org/1999/02/22-rdf-syntax-ns#"
   xmlns:svg="http://www.w3.org/2000/svg"
   xmlns="http://www.w3.org/2000/svg"
   xmlns:sodipodi="http://sodipodi.sourceforge.net/DTD/sodipodi-0.dtd"
   xmlns:inkscape="http://www.inkscape.org/namespaces/inkscape"
   width="65"
   height="41"
   viewBox="0 0 17.197916 10.847917"
   version="1.1"
   id="svg8"
   inkscape:version="1.0.1 (3bc2e813f5, 2020-09-07)"
   sodipodi:docname="undefined_small.svg">
  <defs
     id="defs2" />
  <sodipodi:namedview
     id="base"
     pagecolor="#ffffff"
     bordercolor="#666666"
     borderopacity="1.0"
     inkscape:pageopacity="0.0"
     inkscape:pageshadow="2"
     inkscape:zoom="0.98994949"
     inkscape:cx="349.58617"
     inkscape:cy="347.9008"
     inkscape:document-units="px"
     inkscape:current-layer="layer1"
     inkscape:document-rotation="0"
     showgrid="false"
     units="px"
     inkscape:window-width="1500"
     inkscape:window-height="1040"
     inkscape:window-x="26"
     inkscape:window-y="0"
     inkscape:window-maximized="0" />
  <metadata
     id="metadata5">
    <rdf:RDF>
      <cc:Work
         rdf:about="">
        <dc:format>image/svg+xml</dc:format>
        <dc:type
           rdf:resource="http://purl.org/dc/dcmitype/StillImage" />
        <dc:title></dc:title>
      </cc:Work>
    </rdf:RDF>
  </metadata>
  <g
     inkscape:label="Слой 1"
     inkscape:groupmode="layer"
     id="layer1">
    <path
       style="fill:none;stroke:#000000;stroke-width:0.0243914px;stroke-linecap:butt;stroke-linejoin:miter;stroke-opacity:1"
       d="M 6.9344946,3.8429783 C 8.8914386,2.0881877 11.918889,0.1062969 13.375866,1.3096348 14.832842,2.5129727 13.222499,6.0596532 11.075377,7.5796589 8.9282526,9.0996639 5.4775184,10.746337 4.7873719,8.6563285 4.0972247,6.5663218 6.9344946,3.8429783 6.9344946,3.8429783 Z"
       id="path10"
       sodipodi:nodetypes="csssc" />
    <path
       style="fill:none;stroke:#000000;stroke-width:0.0127625px;stroke-linecap:butt;stroke-linejoin:miter;stroke-opacity:1"
       d="M 9.1938416,2.9501679 C 9.7198136,2.0097713 13.357789,3.5872101 12.744156,4.224253 12.130522,4.8612952 8.7116996,3.5568751 9.1938416,2.9501679 Z"
       id="path16" />
    <path
       style="fill:none;stroke:#000000;stroke-width:0.0127625px;stroke-linecap:butt;stroke-linejoin:miter;stroke-opacity:1"
       d="M 7.4746036,4.7374222 C 8.0005756,3.7970257 11.638552,5.3744652 11.024918,6.0115074 10.411284,6.6485503 6.9924616,5.3441295 7.4746036,4.7374222 Z"
       id="path16-6" />
    <path
       style="fill:none;stroke:#000000;stroke-width:0.0127625px;stroke-linecap:butt;stroke-linejoin:miter;stroke-opacity:1"
       d="M 5.9146303,6.4330494 C 6.4406026,5.4926529 10.078579,7.070093 9.4649446,7.7071346 8.8513106,8.3441775 5.432488,7.039758 5.9146303,6.4330494 Z"
       id="path16-4" />
    <path
       style="fill:#ff9955;stroke-width:0.0123194"
       d="M 6.0415181,9.6152103 C 5.3684106,9.5449812 4.9364215,9.1706917 4.7691376,8.5127735 4.7207414,8.3224345 4.7051172,8.1846406 4.7051776,7.9485577 4.7052313,7.7189259 4.7183589,7.5951845 4.7679161,7.3571868 4.9614505,6.4277427 5.625572,5.2953259 6.6119046,4.2129389 6.9234266,3.8710797 6.9759686,3.8225486 7.5319996,3.3630729 8.0461576,2.9382 8.3552516,2.7025453 8.7929656,2.4017079 9.9965516,1.574491 11.074098,1.0852131 11.925805,0.97918917 c 0.178182,-0.022181 0.469071,-0.021611 0.630261,0.00121 0.316163,0.044819 0.587591,0.16237523 0.813001,0.35211893 0.295954,0.2491259 0.473734,0.6080032 0.52832,1.0664998 0.02107,0.1769558 0.01028,0.5953676 -0.02013,0.7800556 -0.213721,1.2982758 -1.019359,2.7413933 -2.12963,3.8147387 -0.365029,0.3528894 -0.855535,0.714815 -1.542655,1.1382671 C 8.5049186,9.1797709 7.0014586,9.7153321 6.0415221,9.6151768 Z M 9.1730126,7.8589674 c 0.176727,-0.037329 0.28123,-0.097749 0.33965,-0.1963699 0.119815,-0.2022599 -0.09139,-0.4892403 -0.585759,-0.7959187 -0.51646,-0.3203826 -1.218483,-0.5866991 -1.833017,-0.6953647 -0.15379,-0.027195 -0.198876,-0.030275 -0.442359,-0.030255 -0.259377,2.28e-5 -0.275904,0.00141 -0.381741,0.030651 -0.18462,0.051114 -0.3213193,0.1540483 -0.3931544,0.2960448 -0.031302,0.061873 -0.018517,0.1714095 0.029087,0.2492507 0.1759336,0.2876744 0.7967424,0.6429564 1.5794874,0.9039233 0.430554,0.1435469 0.849884,0.2330949 1.240352,0.2648776 0.105524,0.0086 0.348806,-0.00597 0.447452,-0.026846 z M 10.677675,6.1743463 c 0.136815,-0.021624 0.234509,-0.059712 0.317402,-0.1237461 0.08852,-0.06839 0.115334,-0.1258281 0.106473,-0.2281171 C 11.0797,5.5702606 10.682557,5.2354968 10.04047,4.9280646 9.2608056,4.5547597 8.3844036,4.3638797 7.8951296,4.4608104 c -0.33625,0.066618 -0.548835,0.3099945 -0.452904,0.5185128 0.146059,0.3174772 0.924355,0.7504018 1.825565,1.0154627 0.311957,0.091751 0.561722,0.1425079 0.9285694,0.1886987 0.09091,0.01145 0.386566,0.00584 0.481315,-0.00913 z m 1.781329,-1.7985135 c 0.11407,-0.02404 0.19732,-0.060752 0.265558,-0.1171126 0.07718,-0.063739 0.09444,-0.10035 0.09465,-0.200737 1.62e-4,-0.078312 -0.0054,-0.099416 -0.04467,-0.167939 C 12.68111,3.7268281 12.494035,3.5615858 12.192006,3.3754971 11.611793,3.0180104 10.828044,2.7392656 10.189582,2.6633224 c -0.142811,-0.016987 -0.4336004,-0.014255 -0.5461624,0.0051 -0.213167,0.036712 -0.376063,0.1336972 -0.461085,0.2745306 -0.08124,0.1345724 -0.04961,0.2595602 0.106767,0.4218716 0.369733,0.3837606 1.4545584,0.8442109 2.3343644,0.9908115 0.350301,0.058369 0.623041,0.064953 0.835538,0.020168 z"
       id="path39" />
  </g>
</svg>
