<?xml version="1.0" encoding="UTF-8" standalone="no"?>
<svg
   xmlns:dc="http://purl.org/dc/elements/1.1/"
   xmlns:cc="http://creativecommons.org/ns#"
   xmlns:rdf="http://www.w3.org/1999/02/22-rdf-syntax-ns#"
   xmlns:svg="http://www.w3.org/2000/svg"
   xmlns="http://www.w3.org/2000/svg"
   xmlns:sodipodi="http://sodipodi.sourceforge.net/DTD/sodipodi-0.dtd"
   xmlns:inkscape="http://www.inkscape.org/namespaces/inkscape"
   width="200"
   height="125"
   viewBox="0 0 52.916666 33.072918"
   version="1.1"
   id="svg8"
   inkscape:version="1.0.1 (3bc2e813f5, 2020-09-07)"
   sodipodi:docname="undefined_medium.svg">
  <defs
     id="defs2" />
  <sodipodi:namedview
     id="base"
     pagecolor="#ffffff"
     bordercolor="#666666"
     borderopacity="1.0"
     inkscape:pageopacity="0.0"
     inkscape:pageshadow="2"
     inkscape:zoom="0.98994949"
     inkscape:cx="349.58617"
     inkscape:cy="347.9008"
     inkscape:document-units="px"
     inkscape:current-layer="layer1"
     inkscape:document-rotation="0"
     showgrid="false"
     units="px"
     inkscape:window-width="1500"
     inkscape:window-height="1040"
     inkscape:window-x="26"
     inkscape:window-y="0"
     inkscape:window-maximized="0" />
  <metadata
     id="metadata5">
    <rdf:RDF>
      <cc:Work
         rdf:about="">
        <dc:format>image/svg+xml</dc:format>
        <dc:type
           rdf:resource="http://purl.org/dc/dcmitype/StillImage" />
        <dc:title></dc:title>
      </cc:Work>
    </rdf:RDF>
  </metadata>
  <g
     inkscape:label="Слой 1"
     inkscape:groupmode="layer"
     id="layer1">
    <path
       style="fill:none;stroke:#000000;stroke-width:0.0886313px;stroke-linecap:butt;stroke-linejoin:miter;stroke-opacity:1"
       d="M 20.002637,11.51737 C 27.113617,5.1409581 38.114513,-2.0606706 43.408754,2.3119181 48.702993,6.6845071 42.851462,19.572139 35.049427,25.095408 27.247388,30.618677 14.708398,36.60222 12.2006,29.007722 9.6928012,21.413229 20.002637,11.51737 20.002637,11.51737 Z"
       id="path10"
       sodipodi:nodetypes="csssc" />
    <path
       style="fill:none;stroke:#000000;stroke-width:0.0463751px;stroke-linecap:butt;stroke-linejoin:miter;stroke-opacity:1"
       d="M 28.212462,8.2731491 C 30.123696,4.8560151 43.343068,10.58798 41.113296,12.902814 38.883524,15.217645 26.460495,10.477752 28.212462,8.2731491 Z"
       id="path16" />
    <path
       style="fill:none;stroke:#000000;stroke-width:0.0463751px;stroke-linecap:butt;stroke-linejoin:miter;stroke-opacity:1"
       d="m 21.965239,14.767526 c 1.911233,-3.417135 15.130607,2.314833 12.900835,4.629665 -2.229772,2.314834 -14.652802,-2.425063 -12.900835,-4.629665 z"
       id="path16-6" />
    <path
       style="fill:none;stroke:#000000;stroke-width:0.0463751px;stroke-linecap:butt;stroke-linejoin:miter;stroke-opacity:1"
       d="m 16.296739,20.928954 c 1.911232,-3.417133 15.130606,2.314838 12.900835,4.629665 -2.229773,2.314834 -14.652804,-2.425058 -12.900835,-4.629665 z"
       id="path16-4" />
    <path
       style="fill:#ff9955;stroke-width:0.0447654"
       d="m 16.757813,32.492027 c -2.445882,-0.255193 -4.015608,-1.615256 -4.623471,-4.005944 -0.175857,-0.691637 -0.23262,-1.192343 -0.232419,-2.050201 1.95e-4,-0.834415 0.0479,-1.284058 0.227974,-2.148874 0.703247,-3.377337 3.116478,-7.492218 6.700533,-11.425306 1.131981,-1.24222 1.322901,-1.418567 3.343363,-3.0881709 1.868305,-1.543869 2.991466,-2.40017 4.581993,-3.49333 4.373489,-3.005872 8.288986,-4.7837689 11.383847,-5.1690301 0.647465,-0.080601 1.704471,-0.078523 2.29019,0.00449 1.148848,0.1628537 2.135143,0.590027 2.954217,1.2795018 1.075413,0.9052533 1.721416,2.2093113 1.919765,3.8753583 0.07656,0.643007 0.03733,2.163395 -0.07317,2.834501 -0.776584,4.7175739 -3.704044,9.9614519 -7.738456,13.8616869 -1.326411,1.282298 -3.108772,2.597434 -5.605571,4.136139 -6.177513,3.807015 -11.64066,5.753092 -15.128795,5.389157 z m 11.378961,-6.381689 c 0.64218,-0.135653 1.021911,-0.355193 1.234195,-0.713553 0.435374,-0.734955 -0.332081,-1.777761 -2.128483,-2.892145 -1.87667,-1.164179 -4.42762,-2.131896 -6.660664,-2.526757 -0.558831,-0.09882 -0.722659,-0.110025 -1.607408,-0.109935 -0.942504,8.1e-5 -1.002558,0.0051 -1.387139,0.111383 -0.670857,0.185734 -1.167582,0.559769 -1.428612,1.075743 -0.113737,0.224826 -0.06728,0.622855 0.105701,0.905707 0.639292,1.045327 2.895134,2.336322 5.739408,3.284601 1.564513,0.521608 3.088238,0.847001 4.507089,0.96249 0.383444,0.03123 1.267462,-0.02181 1.625914,-0.09754 z m 5.467518,-6.121437 c 0.497147,-0.07857 0.852139,-0.216968 1.153346,-0.449659 0.321679,-0.248511 0.419093,-0.457223 0.386896,-0.828911 -0.0794,-0.916505 -1.522501,-2.132944 -3.855666,-3.250065 -2.833075,-1.356484 -6.017673,-2.050088 -7.795555,-1.697868 -1.22184,0.242061 -1.994313,1.126431 -1.645729,1.884129 0.530737,1.153622 3.358848,2.726746 6.633588,3.689903 1.133566,0.333398 2.041139,0.517834 3.374157,0.685678 0.330351,0.04161 1.404671,0.0212 1.748963,-0.03319 z m 6.472846,-6.535289 c 0.414498,-0.08735 0.717005,-0.220765 0.964962,-0.425554 0.280433,-0.231616 0.343157,-0.364643 0.343926,-0.729422 5.9e-4,-0.284563 -0.01979,-0.361249 -0.162322,-0.610241 -0.339498,-0.593081 -1.019275,-1.193525 -2.11676,-1.8697189 -2.108331,-1.299006 -4.956254,-2.311885 -7.276243,-2.587842 -0.518936,-0.06172 -1.575579,-0.05181 -1.9846,0.01863 -0.774587,0.133391 -1.366503,0.485818 -1.675452,0.997566 -0.295214,0.488999 -0.180274,0.943168 0.38796,1.532962 1.343507,1.3944789 5.285454,3.0676229 8.482421,3.6003279 1.272894,0.212099 2.263953,0.236023 3.036108,0.07329 z"
       id="path39" />
  </g>
</svg>
